REM DIRINDEX 1\2\4,1\2\5,1\2\6,1\3\7,1\3\8,1\3\9,1\3\10
REM DIRNAME cjc058,folder01,folder02,folder03,folder04,folder05,folder06,folder07,folder08,folder09
TITLE ""
FILE "a_29.mp3" MP3
  TRACK 01 AUDIO
    TITLE "0:"
    INDEX 01 00:00:00
  TRACK 02 AUDIO
    TITLE "6:cjc058_0470"
    INDEX 01 00:00:15
  TRACK 03 AUDIO
    TITLE "0:"
    INDEX 01 00:04:07
  TRACK 04 AUDIO
    TITLE "4:cjc058_0471"
    INDEX 01 00:04:54
  TRACK 05 AUDIO
    TITLE "0:"
    INDEX 01 00:07:07
  TRACK 06 AUDIO
    TITLE "5:cjc058_0472"
    INDEX 01 00:07:41
  TRACK 07 AUDIO
    TITLE "0:"
    INDEX 01 00:10:31
  TRACK 08 AUDIO
    TITLE "4:cjc058_0473"
    INDEX 01 00:11:39
  TRACK 09 AUDIO
    TITLE "0:"
    INDEX 01 00:13:39
  TRACK 10 AUDIO
    TITLE "5:cjc058_0474"
    INDEX 01 00:13:73
  TRACK 11 AUDIO
    TITLE "0:"
    INDEX 01 00:16:48
  TRACK 12 AUDIO
    TITLE "4:cjc058_0475"
    INDEX 01 00:17:57
  TRACK 13 AUDIO
    TITLE "0:"
    INDEX 01 00:19:65
  TRACK 14 AUDIO
    TITLE "5:cjc058_0476"
    INDEX 01 00:20:24
  TRACK 15 AUDIO
    TITLE "0:"
    INDEX 01 00:24:53
  TRACK 16 AUDIO
    TITLE "4:cjc058_0477"
    INDEX 01 00:25:62
  TRACK 17 AUDIO
    TITLE "0:"
    INDEX 01 00:28:25
  TRACK 18 AUDIO
    TITLE "5:cjc058_0478"
    INDEX 01 00:28:57
  TRACK 19 AUDIO
    TITLE "0:"
    INDEX 01 00:31:08
  TRACK 20 AUDIO
    TITLE "4:cjc058_0479"
    INDEX 01 00:32:15
  TRACK 21 AUDIO
    TITLE "0:"
    INDEX 01 00:34:38
  TRACK 22 AUDIO
    TITLE "5:cjc058_0480"
    INDEX 01 00:34:73
  TRACK 23 AUDIO
    TITLE "0:"
    INDEX 01 00:38:47
  TRACK 24 AUDIO
    TITLE "4:cjc058_0481"
    INDEX 01 00:39:56
  TRACK 25 AUDIO
    TITLE "0:"
    INDEX 01 00:42:02
  TRACK 26 AUDIO
    TITLE "5:cjc058_0482"
    INDEX 01 00:42:31
  TRACK 27 AUDIO
    TITLE "0:"
    INDEX 01 00:44:63
  TRACK 28 AUDIO
    TITLE "4:cjc058_0483"
    INDEX 01 00:45:71
  TRACK 29 AUDIO
    TITLE "0:"
    INDEX 01 00:48:14
  TRACK 30 AUDIO
    TITLE "5:cjc058_0484"
    INDEX 01 00:48:48
  TRACK 31 AUDIO
    TITLE "0:"
    INDEX 01 00:50:68
  TRACK 32 AUDIO
    TITLE "4:cjc058_0485"
    INDEX 01 00:52:02
  TRACK 33 AUDIO
    TITLE "0:"
    INDEX 01 00:54:05
  TRACK 34 AUDIO
    TITLE "5:cjc058_0486"
    INDEX 01 00:54:38
  TRACK 35 AUDIO
    TITLE "0:"
    INDEX 01 00:57:07
  TRACK 36 AUDIO
    TITLE "4:cjc058_0487"
    INDEX 01 00:58:15
  TRACK 37 AUDIO
    TITLE "0:"
    INDEX 01 01:00:23
  TRACK 38 AUDIO
    TITLE "5:cjc058_0488"
    INDEX 01 01:00:55
  TRACK 39 AUDIO
    TITLE "0:"
    INDEX 01 01:03:08
  TRACK 40 AUDIO
    TITLE "4:cjc058_0489"
    INDEX 01 01:04:17
  TRACK 41 AUDIO
    TITLE "0:"
    INDEX 01 01:06:22
  TRACK 42 AUDIO
    TITLE "5:cjc058_0490"
    INDEX 01 01:06:53
  TRACK 43 AUDIO
    TITLE "0:"
    INDEX 01 01:08:68
  TRACK 44 AUDIO
    TITLE "4:cjc058_0491"
    INDEX 01 01:09:73
  TRACK 45 AUDIO
    TITLE "0:"
    INDEX 01 01:12:40
  TRACK 46 AUDIO
    TITLE "5:cjc058_0492"
    INDEX 01 01:12:71
  TRACK 47 AUDIO
    TITLE "0:"
    INDEX 01 01:15:17
  TRACK 48 AUDIO
    TITLE "4:cjc058_0493"
    INDEX 01 01:16:22
  TRACK 49 AUDIO
    TITLE "0:"
    INDEX 01 01:18:35
  TRACK 50 AUDIO
    TITLE "5:cjc058_0494"
    INDEX 01 01:18:70
  TRACK 51 AUDIO
    TITLE "0:"
    INDEX 01 01:21:35
  TRACK 52 AUDIO
    TITLE "4:cjc058_0495"
    INDEX 01 01:22:46
  TRACK 53 AUDIO
    TITLE "0:"
    INDEX 01 01:25:02
  TRACK 54 AUDIO
    TITLE "5:cjc058_0496"
    INDEX 01 01:25:33
  TRACK 55 AUDIO
    TITLE "0:"
    INDEX 01 01:30:24
  TRACK 56 AUDIO
    TITLE "4:cjc058_0497"
    INDEX 01 01:31:32
  TRACK 57 AUDIO
    TITLE "0:"
    INDEX 01 01:33:36
  TRACK 58 AUDIO
    TITLE "5:cjc058_0498"
    INDEX 01 01:33:70
  TRACK 59 AUDIO
    TITLE "0:"
    INDEX 01 01:36:13
  TRACK 60 AUDIO
    TITLE "4:cjc058_0499"
    INDEX 01 01:37:21
  TRACK 61 AUDIO
    TITLE "0:"
    INDEX 01 01:39:43
  TRACK 62 AUDIO
    TITLE "5:cjc058_0500"
    INDEX 01 01:40:03
  TRACK 63 AUDIO
    TITLE "0:"
    INDEX 01 01:42:20
  TRACK 64 AUDIO
    TITLE "4:cjc058_0501"
    INDEX 01 01:43:27
  TRACK 65 AUDIO
    TITLE "0:"
    INDEX 01 01:45:26
  TRACK 66 AUDIO
    TITLE "5:cjc058_0502"
    INDEX 01 01:45:59
  TRACK 67 AUDIO
    TITLE "0:"
    INDEX 01 01:48:50
  TRACK 68 AUDIO
    TITLE "4:cjc058_0503"
    INDEX 01 01:49:61
  TRACK 69 AUDIO
    TITLE "0:"
    INDEX 01 01:51:68
  TRACK 70 AUDIO
    TITLE "5:cjc058_0504"
    INDEX 01 01:52:24
  TRACK 71 AUDIO
    TITLE "0:"
    INDEX 01 01:54:07
  TRACK 72 AUDIO
    TITLE "4:cjc058_0505"
    INDEX 01 01:55:16
  TRACK 73 AUDIO
    TITLE "0:"
    INDEX 01 01:57:37
  TRACK 74 AUDIO
    TITLE "5:cjc058_0506"
    INDEX 01 01:57:72
  TRACK 75 AUDIO
    TITLE "0:"
    INDEX 01 02:01:29
